PathFileType	4	(X/Y/Z)	./resultDataOpenSim/trcMotMarkerGrf/sub06/qtm-13-07.trc
DataRate	CameraRate	NumFrames	NumMarkers	Units	OrigDataRate	OrigDataStartFrame	OrigNumFrames
250.000000	250.000000	8	24	m	250.000000	1	519
Frame#	Time	L.Toe.Tip			R.Toe.Tip			L.Ankle.Lat			R.Ankle.Lat			L.Ankle.Med			R.Ankle.Med			L.Heel			R.Heel			L.Knee.Lat			R.Knee.Lat			L.Knee.Med			R.Knee.Med			L.Thigh.Upper			R.Thigh.Upper			L.ASIS			R.ASIS			V.Sacral			L.Acromium			R.Acromium			C7			L.Elbow			R.Elbow			L.Wrist.Lat			R.Wrist.Lat
		X1	Y1	Z1	X2	Y2	Z2	X3	Y3	Z3	X4	Y4	Z4	X5	Y5	Z5	X6	Y6	Z6	X7	Y7	Z7	X8	Y8	Z8	X9	Y9	Z9	X10	Y10	Z10	X11	Y11	Z11	X12	Y12	Z12	X13	Y13	Z13	X14	Y14	Z14	X15	Y15	Z15	X16	Y16	Z16	X17	Y17	Z17	X18	Y18	Z18	X19	Y19	Z19	X20	Y20	Z20	X21	Y21	Z21	X22	Y22	Z22	X23	Y23	Z23	X24	Y24	Z24

1	0	-1.5864674	0.032441108	-0.088353278	-1.1418429	0.075685226	0.10446469	-1.7073776	0.073790257	-0.099482368	-1.2723103	0.076370547	0.10644594	-1.6966506	0.08844937	-0.016503105	-1.250876	0.10267561	0.023712017	NaN	NaN	NaN	-1.3136355	0.042921109	0.032316949	-1.5674008	0.42042841	-0.12610227	-1.2880985	0.46763398	0.12496434	-1.5732017	0.42584295	-0.0061579193	-1.3041308	0.44925309	-0.0022404236	-1.4947666	0.80179861	-0.19779217	-1.4664175	0.79983864	0.15028619	-1.4120232	0.84514525	-0.15867369	-1.3855561	0.85193878	0.08404176	-1.5815882	0.92858303	-0.012345666	-1.4248464	1.3337837	-0.20760738	-1.4278506	1.3188814	0.15357784	-1.5008998	1.3644519	-0.029037939	-1.4513532	1.0129293	-0.28771679	-1.5591775	1.03114	0.21703244	-1.2323515	0.88654609	-0.26213658	-1.4424095	0.81492178	0.24355296
2	0.004	-1.586337	0.032423379	-0.088438145	-1.1247849	0.078678642	0.10425636	-1.7071923	0.074058882	-0.099539998	-1.2553472	0.07552675	0.1067285	-1.6964905	0.088640193	-0.016514813	-1.2349288	0.10249121	0.02391512	NaN	NaN	NaN	-1.2958132	0.041129204	0.032752449	-1.564918	0.41974889	-0.1262506	-1.2820633	0.46613185	0.12418993	-1.570973	0.42517007	-0.0062478862	-1.2978057	0.44729048	-0.0030696931	-1.4902445	0.80058556	-0.19679054	-1.461405	0.79826677	0.1498303	-1.4067941	0.84352536	-0.15937712	-1.37932	0.85037158	0.083911568	-1.5753805	0.92680164	-0.011947064	-1.4192488	1.3322553	-0.20746559	-1.4225565	1.3171176	0.15376049	-1.4955179	1.3631411	-0.028562159	-1.4435547	1.0110731	-0.2877001	-1.5545228	1.0296525	0.21638817	-1.2236583	0.88692844	-0.26090094	-1.4402855	0.81283453	0.24421026
3	0.008	-1.5860926	0.032430728	-0.088642943	-1.1078088	0.081827712	0.10396021	-1.7070023	0.074333093	-0.099597098	-1.2384535	0.07490183	0.10705594	-1.6962536	0.088848626	-0.016551233	-1.2190821	0.10243836	0.024110358	NaN	NaN	NaN	-1.2781347	0.039493958	0.033228967	-1.5624552	0.41907942	-0.12639168	-1.2759729	0.46458361	0.12341896	-1.5685782	0.42446172	-0.006363192	-1.2914925	0.44530248	-0.0039498674	-1.4856263	0.79925972	-0.19603003	-1.456252	0.79658297	0.14941061	-1.4016118	0.84191986	-0.15995853	-1.3731482	0.84876969	0.08375945	-1.567874	0.92490986	-0.010785707	-1.4136422	1.3307012	-0.20734235	-1.417225	1.3153182	0.15394725	-1.4901234	1.3617939	-0.028141203	-1.4358008	1.0092139	-0.28777572	-1.5498402	1.0281308	0.21575532	-1.2149967	0.88724747	-0.25967766	-1.4381214	0.8107389	0.24488199
4	0.012	-1.5857657	0.032459993	-0.088939053	-1.091049	0.085235757	0.10359038	-1.7067992	0.074612198	-0.099651982	-1.2216479	0.074633314	0.10746252	-1.6958854	0.089086301	-0.016627833	-1.2034052	0.102594	0.024303581	NaN	NaN	NaN	-1.2606805	0.038100725	0.033769912	-1.5599974	0.4184087	-0.12651937	-1.2698147	0.46296906	0.12265097	-1.5659681	0.42369077	-0.0065111062	-1.285195	0.44327289	-0.0049129386	-1.4809143	0.7978089	-0.19558485	-1.4507138	0.79478664	0.14912312	-1.3964733	0.84030254	-0.16041263	-1.3670148	0.84711434	0.083576798	-1.5588074	0.92293442	-0.0086596782	-1.4080195	1.329102	-0.20724464	-1.4118332	1.3134602	0.1541467	-1.4846667	1.3603753	-0.027833623	-1.4280674	1.0073387	-0.28791393	-1.5451203	1.0265616	0.21515295	-1.2063697	0.88747458	-0.25846958	-1.4358895	0.80861756	0.24556489
5	0.016	-1.5855328	0.032483396	-0.08915337	-1.0746927	0.08892058	0.10323389	-1.7065763	0.074892578	-0.099701596	-1.2049692	0.074754128	0.10795918	-1.6953852	0.089360458	-0.016741324	-1.187947	0.10298817	0.024507825	NaN	NaN	NaN	-1.2435143	0.036956248	0.034391156	-1.5574917	0.41770997	-0.12663725	-1.2636672	0.46127448	0.12188148	-1.5631854	0.42283853	-0.0066814395	-1.2789262	0.44120457	-0.0059618264	-1.476185	0.79630666	-0.19539775	-1.4446077	0.79293827	0.14905583	-1.3913066	0.83865692	-0.16076758	-1.3608563	0.84540478	0.08337071	-1.5493053	0.92101996	-0.0061610951	-1.4023901	1.327456	-0.20717241	-1.4063868	1.3115477	0.15435834	-1.479129	1.3588768	-0.027659406	-1.4203146	1.0054449	-0.28803649	-1.5403785	1.024954	0.21460063	-1.1977862	0.88761376	-0.25727292	-1.4335876	0.80646613	0.24624447
6	0.02	-1.585509	0.032479362	-0.08917115	-1.0588389	0.09284501	0.10293396	-1.7063247	0.075181601	-0.099748531	-1.1885338	0.075203605	0.10850639	-1.6948579	0.089668038	-0.016856964	-1.1727185	0.10363229	0.024720944	NaN	NaN	NaN	-1.2266798	0.036039941	0.03510325	-1.5548824	0.4169727	-0.12675716	-1.2576133	0.45949582	0.12110513	-1.5602873	0.42190269	-0.0068635126	-1.2726902	0.43911129	-0.0070800716	-1.4714745	0.79481805	-0.19535326	-1.4381646	0.79101242	0.14914558	-1.3860174	0.8370065	-0.16101754	-1.3546291	0.84364539	0.083152108	-1.5409174	0.91930983	-0.0041513013	-1.3967535	1.3257738	-0.20712361	-1.4008952	1.3095977	0.15457502	-1.4735365	1.3573159	-0.027594048	-1.4124874	1.0035436	-0.28806257	-1.5356258	1.0233216	0.21410718	-1.1892582	0.88767631	-0.25607798	-1.4312217	0.80429305	0.24691016
7	0.024	-1.5856117	0.03245101	-0.089065855	-1.0434829	0.096943218	0.1026643	-1.7060331	0.075499427	-0.099804777	-1.1725213	0.075880934	0.10902092	-1.6945954	0.089968197	-0.016882141	-1.1577424	0.10451544	0.024913817	NaN	NaN	NaN	-1.2102256	0.035347605	0.035877036	-1.5521625	0.41621743	-0.12689012	-1.2516472	0.45767326	0.12032581	-1.5573153	0.42090793	-0.007057247	-1.2664725	0.43701601	-0.0082448498	-1.4667507	0.79335619	-0.19532425	-1.4319477	0.78891478	0.14919991	-1.380594	0.8353747	-0.16118392	-1.3483285	0.84184652	0.082924736	-1.5345007	0.91787909	-0.0030927419	-1.3910897	1.3240634	-0.2070861	-1.3953613	1.3076222	0.15479664	-1.4679158	1.3557211	-0.027578039	-1.4045388	1.0016532	-0.28793273	-1.5308607	1.0216738	0.21367109	-1.1807969	0.88766582	-0.25487801	-1.4287925	0.80210285	0.24755626
8	0.028	-1.5856964	0.032415043	-0.088969718	-1.0286069	0.10112364	0.1023963	-1.7057014	0.0758646	-0.099883683	-1.1570389	0.076724384	0.10943091	-1.6950807	0.090164112	-0.01666078	-1.1431093	0.10558503	0.025038511	NaN	NaN	NaN	-1.1942107	0.034872026	0.036626604	-1.5493603	0.41546436	-0.12704146	-1.2456812	0.4558769	0.11956105	-1.5542731	0.4198959	-0.0072676889	-1.2602464	0.43495131	-0.0094321956	-1.4619664	0.79190562	-0.19523349	-1.4262367	0.78665396	0.14909049	-1.3751111	0.83375152	-0.16133232	-1.3419796	0.84002058	0.08268509	-1.5299979	0.91671147	-0.0029481894	-1.38538	1.3223268	-0.20703595	-1.38979	1.305629	0.15502749	-1.4622662	1.3541232	-0.027522617	-1.3965101	0.99978791	-0.28769097	-1.5260745	1.0200154	0.21328657	-1.1724119	0.88758084	-0.25367879	-1.4263037	0.79989854	0.24818523
